<svg xmlns="http://www.w3.org/2000/svg" xmlns:xlink="http://www.w3.org/1999/xlink" width="162.9" height="92.685" viewBox="0 0 162.9 92.685">
  <defs>
    <clipPath id="clip-path">
      <rect id="長方形_162628" data-name="長方形 162628" width="162.9" height="92.685" fill="none"/>
    </clipPath>
    <clipPath id="clip-path-2">
      <rect id="長方形_162629" data-name="長方形 162629" width="158.826" height="88.612" fill="none"/>
    </clipPath>
  </defs>
  <g id="グループ_79431" data-name="グループ 79431" transform="translate(0 0)">
    <g id="グループ_79365" data-name="グループ 79365" transform="translate(0 0)">
      <g id="グループ_79364" data-name="グループ 79364" clip-path="url(#clip-path)">
        <path id="パス_118347" data-name="パス 118347" d="M86.775,60.987c-7.39,0-16.2-3.18-16.2-18.326a25.766,25.766,0,0,1,4.807-15.486c3.8-5.155,8.595-7.759,14.279-7.759h3.3l-.131.262a15.179,15.179,0,0,1,8.03,4.317,15.993,15.993,0,0,1,4.407,11.4,7.555,7.555,0,0,1-3.162,6.565c-.692.475-1.809,1.042-6.76,2.055A58.385,58.385,0,0,1,83.9,45.394H83.89q-.994,0-2.143-.059c.677,4.439,3,5.1,5.252,5.1h0a4.2,4.2,0,0,0,2.453-.749,26.5,26.5,0,0,0,2.894-2.7,5.11,5.11,0,0,1,3.668-1.725h0a5.488,5.488,0,0,1,4.067,1.735,5.718,5.718,0,0,1,1.585,4.062,5.531,5.531,0,0,1-1.507,3.73,17.7,17.7,0,0,1-13.381,6.2h-.01ZM83.688,34.957a54.818,54.818,0,0,0,10.336-1.251,7.271,7.271,0,0,0-1.233-2.542,3.18,3.18,0,0,0-2.518-1.248H90.13a6.416,6.416,0,0,0-4.544,1.869,13.082,13.082,0,0,0-2.374,3.168q.238,0,.476,0" transform="translate(1.278 0.352)" fill="#fff"/>
        <path id="パス_118348" data-name="パス 118348" d="M89.624,21.415c-5,0-9.249,2.324-12.625,6.91a23.6,23.6,0,0,0-4.425,14.3c0,10.806,4.765,16.29,14.164,16.29a15.686,15.686,0,0,0,11.876-5.529,3.523,3.523,0,0,0,.986-2.409,3.664,3.664,0,0,0-1.043-2.636,3.386,3.386,0,0,0-2.51-1.085,3.1,3.1,0,0,0-2.24,1.069,28.378,28.378,0,0,1-3.165,2.953,6.2,6.2,0,0,1-3.68,1.158c-4.86,0-7.31-3.054-7.477-9.333,1.657.146,3.113.22,4.336.22A56.223,56.223,0,0,0,94.9,41.977c4.451-.91,5.543-1.413,5.98-1.713a5.566,5.566,0,0,0,2.311-4.881,13.845,13.845,0,0,0-3.831-10.008,13.042,13.042,0,0,0-9.739-3.957m6.634,13.809a56.946,56.946,0,0,1-12.605,1.731c-1.2,0-2.349-.049-3.436-.146a14.993,14.993,0,0,1,3.9-6.508,8.489,8.489,0,0,1,6.045-2.46,5.2,5.2,0,0,1,4.221,2.06,9.344,9.344,0,0,1,1.876,5.326" transform="translate(1.314 0.388)" fill="#fff"/>
        <path id="パス_118349" data-name="パス 118349" d="M117.462,60.987c-7.391,0-16.2-3.18-16.2-18.326a25.748,25.748,0,0,1,4.809-15.488c3.792-5.154,8.592-7.758,14.277-7.758h3.3l-.131.262a15.172,15.172,0,0,1,8.03,4.317,15.988,15.988,0,0,1,4.406,11.4,7.553,7.553,0,0,1-3.161,6.565c-.692.475-1.809,1.042-6.76,2.055a58.413,58.413,0,0,1-11.443,1.385h-.013q-.994,0-2.144-.059c.678,4.439,3,5.1,5.254,5.1h0a4.193,4.193,0,0,0,2.453-.748,26.45,26.45,0,0,0,2.893-2.7,5.112,5.112,0,0,1,3.673-1.726h0a5.479,5.479,0,0,1,4.064,1.737,5.7,5.7,0,0,1,1.585,4.06,5.524,5.524,0,0,1-1.508,3.731,17.7,17.7,0,0,1-13.381,6.2h-.009Zm-3.085-26.029a54.827,54.827,0,0,0,10.334-1.251,7.253,7.253,0,0,0-1.233-2.542,3.183,3.183,0,0,0-2.519-1.248h-.144a6.409,6.409,0,0,0-4.542,1.869,13.1,13.1,0,0,0-2.374,3.168c.159,0,.318,0,.477,0" transform="translate(1.834 0.352)" fill="#fff"/>
        <path id="パス_118350" data-name="パス 118350" d="M120.312,21.415c-5,0-9.25,2.324-12.625,6.91a23.6,23.6,0,0,0-4.426,14.3c0,10.806,4.765,16.29,14.164,16.29A15.686,15.686,0,0,0,129.3,53.385a3.523,3.523,0,0,0,.986-2.409,3.664,3.664,0,0,0-1.043-2.636,3.383,3.383,0,0,0-2.509-1.085,3.1,3.1,0,0,0-2.24,1.069,28.563,28.563,0,0,1-3.165,2.953,6.2,6.2,0,0,1-3.681,1.158c-4.86,0-7.31-3.054-7.477-9.333,1.659.146,3.114.22,4.336.22a56.223,56.223,0,0,0,11.08-1.344c4.451-.91,5.543-1.413,5.98-1.713a5.561,5.561,0,0,0,2.311-4.881,13.849,13.849,0,0,0-3.83-10.008,13.042,13.042,0,0,0-9.739-3.957m6.634,13.809a56.946,56.946,0,0,1-12.605,1.731c-1.2,0-2.348-.049-3.436-.146a14.993,14.993,0,0,1,3.9-6.508,8.489,8.489,0,0,1,6.044-2.46,5.2,5.2,0,0,1,4.221,2.06,9.344,9.344,0,0,1,1.876,5.326" transform="translate(1.87 0.388)" fill="#fff"/>
        <path id="パス_118351" data-name="パス 118351" d="M140.382,60.3a4.662,4.662,0,0,1-.547-.031,4.926,4.926,0,0,1-4.343-5.435,26.286,26.286,0,0,1,.887-4.256,23.124,23.124,0,0,0,.69-5.388c0-4.837-.674-8.716-2-11.509l-.01-.022c-.107-.2-.448-.829-1.449-2.643a7.58,7.58,0,0,1-1.119-3.386l-.01-.116,0-.115a4.932,4.932,0,0,1,1.775-3.631,5.416,5.416,0,0,1,3.644-1.465c2.934,0,4.758,2.312,5.86,4.514A11.714,11.714,0,0,1,151.454,24a10.215,10.215,0,0,1,6.15,1.805l0,0a6.651,6.651,0,0,1,2.893,5.521,5.251,5.251,0,0,1-1.324,3.572,4.612,4.612,0,0,1-3.549,1.64H155.6l-.267-.019a6.427,6.427,0,0,1-3.486-1.635,1.528,1.528,0,0,0-.762-.329,2.458,2.458,0,0,0-2,1.139,8.224,8.224,0,0,0-1.245,4.823l0,.109v3.709a32.722,32.722,0,0,1-1.428,10.658c-1.519,4.283-3.837,5.244-5.565,5.286-.155.015-.312.022-.467.022M136.559,27.44a3.486,3.486,0,0,0,.519,1.45l.064.11c1.046,1.894,1.392,2.536,1.5,2.733l.123.247c1.57,3.3,2.377,7.765,2.377,13.233a27.327,27.327,0,0,1-.837,6.449,22.55,22.55,0,0,0-.769,3.651.845.845,0,0,0,.752.911.819.819,0,0,0,.193,0l.245-.014c.586,0,1.268-.932,1.821-2.492a28.716,28.716,0,0,0,1.223-9.315V40.68a12.279,12.279,0,0,1,1.864-7.147,6.551,6.551,0,0,1,5.514-3.049h.073l.165.009a5.612,5.612,0,0,1,3.168,1.349,2.455,2.455,0,0,0,1.173.616.6.6,0,0,0,.354-.2,1.281,1.281,0,0,0,.346-.888,2.615,2.615,0,0,0-1.125-2.2l1.724-2.515-1.743,2.507a6.11,6.11,0,0,0-3.717-1.081l-.058,0h-.06a7.546,7.546,0,0,0-6.594,3.695L142.533,35.7l-1.372-4.354c-.981-3.112-2.191-4.969-3.236-4.969a1.352,1.352,0,0,0-.909.386l-.139.123a.873.873,0,0,0-.318.553" transform="translate(2.399 0.404)" fill="#fff"/>
        <path id="パス_118352" data-name="パス 118352" d="M156.41,27.447A8.094,8.094,0,0,0,151.444,26a9.557,9.557,0,0,0-8.378,4.7c-1.355-4.3-3.054-6.394-5.177-6.394a3.408,3.408,0,0,0-2.322.957,2.9,2.9,0,0,0-1.087,2.17,5.518,5.518,0,0,0,.844,2.515c1.245,2.256,1.494,2.727,1.527,2.788l.016.038c1.462,3.069,2.2,7.242,2.2,12.4a25.2,25.2,0,0,1-.775,5.948,24.051,24.051,0,0,0-.814,3.9,2.883,2.883,0,0,0,3.211,3.184c1.575,0,2.833-1.294,3.741-3.847A30.917,30.917,0,0,0,145.77,44.3V40.59a10.305,10.305,0,0,1,1.554-6.014,4.476,4.476,0,0,1,3.838-2.093,3.613,3.613,0,0,1,2.025.863,4.438,4.438,0,0,0,2.389,1.12,2.63,2.63,0,0,0,2.036-.951,3.265,3.265,0,0,0,.814-2.233,4.623,4.623,0,0,0-2.009-3.834" transform="translate(2.436 0.44)" fill="#fff"/>
        <path id="パス_118353" data-name="パス 118353" d="M37.537,65.808a10.54,10.54,0,0,1-6.008-1.869,7.889,7.889,0,0,1-3.268-5.6,110.367,110.367,0,0,0-2.834-14.275c-.493-1.837-1.087-3.956-1.72-6.132l-.53-1.821,1.78-.657A24.872,24.872,0,0,1,33,33.918l1.567-.039.438,1.5c.594,2.038,1.14,3.99,1.581,5.645A121.627,121.627,0,0,1,39.273,53.8l.387-.1a71.369,71.369,0,0,0,10.862-3.712l1.716-.745.889,1.645A23.564,23.564,0,0,1,55.7,58.573l.232,1.532-1.414.632a69.127,69.127,0,0,1-10.846,3.8c-1.782.473-3.645.89-5.523,1.235l-.313.033c-.1,0-.2,0-.3,0M28.166,38.7c.435,1.525.84,2.989,1.194,4.309a114.575,114.575,0,0,1,2.945,14.856,3.831,3.831,0,0,0,1.566,2.74,6.584,6.584,0,0,0,3.7,1.127c1.72-.32,3.422-.7,5.062-1.138a65.121,65.121,0,0,0,8.742-2.94,19.5,19.5,0,0,0-1.038-3.18,75.557,75.557,0,0,1-9.656,3.161c-1.024.272-1.928.494-2.672.656L37.577,56.3l-2.015.274a117.735,117.735,0,0,0-2.913-14.5c-.308-1.161-.683-2.514-1.106-3.993a20.782,20.782,0,0,0-3.378.619" transform="translate(0.42 0.613)" fill="#fff"/>
        <path id="パス_118354" data-name="パス 118354" d="M37.535,56.263a118.791,118.791,0,0,0-2.963-14.747c-.417-1.569-.954-3.49-1.568-5.6a22.945,22.945,0,0,0-7.386,1.414c.675,2.32,1.27,4.45,1.731,6.173a112.036,112.036,0,0,1,2.893,14.592,5.829,5.829,0,0,0,2.4,4.129,8.579,8.579,0,0,0,5.1,1.508c1.824-.335,3.635-.74,5.381-1.2a66.725,66.725,0,0,0,10.525-3.687,21.59,21.59,0,0,0-2.35-7.025,73.034,73.034,0,0,1-11.151,3.812c-1.012.269-1.886.484-2.605.64" transform="translate(0.464 0.65)" fill="#fff"/>
        <path id="パス_118355" data-name="パス 118355" d="M33.688,92.183a10.586,10.586,0,0,1-3.648-.652,7.89,7.89,0,0,1-4.557-4.606,110.427,110.427,0,0,0-6.3-13.121c-3.054-5.442-9.228-15.727-13.4-21.623a5.622,5.622,0,0,1-4.9-3.062A5.551,5.551,0,0,1,.458,44.81a5.17,5.17,0,0,1-.2-3.741l.06-.164a6.031,6.031,0,0,1,2.8-3.018,5.477,5.477,0,0,1,4.634-.579,59.035,59.035,0,0,1,7.743-5.29,51.089,51.089,0,0,1,7.747-3.58l2-.729.636,2.035c.733,2.347,1.479,4.824,2.16,7.165l.533,1.838-1.8.647a36.66,36.66,0,0,0-5.7,2.624,50.026,50.026,0,0,0-5.623,3.869c4.636,6.634,10.7,16.706,13.788,22.206A121.157,121.157,0,0,1,35.018,79.78l.36-.2c6.957-3.907,11.716-7.546,14.137-10.815l.03-.038a12.708,12.708,0,0,0,2.542-9.464l-.207-1.511,1.393-.624A39.1,39.1,0,0,0,60,53.275l2.416-1.724.739,2.875a24.4,24.4,0,0,1,.361,10.414,23.48,23.48,0,0,1-1.464,4.8c-3.014,7.106-9.775,13.648-20.093,19.44-1.624.911-3.324,1.778-5.053,2.578l-.293.11a10.64,10.64,0,0,1-2.929.413M7.589,47.724,8.4,48.837c4.245,5.812,11.061,17.143,14.332,22.971a114.4,114.4,0,0,1,6.55,13.653,3.829,3.829,0,0,0,2.2,2.262,6.475,6.475,0,0,0,3.872.171c1.581-.736,3.135-1.531,4.619-2.363,9.512-5.34,15.683-11.223,18.338-17.482a19.412,19.412,0,0,0,1.21-3.959,20.256,20.256,0,0,0,.215-5.761q-1.694,1.031-3.475,1.9a16.805,16.805,0,0,1-3.485,10.98C50,74.937,44.819,78.951,37.364,83.137c-.953.529-1.766.97-2.444,1.311l-1.97.993L32.117,83.4A117.262,117.262,0,0,0,25.689,70.09c-3.2-5.7-10.061-17.066-14.645-23.37L9.939,45.2l1.429-1.224A54.31,54.31,0,0,1,19.03,38.5,40.662,40.662,0,0,1,23.6,36.256c-.317-1.065-.64-2.143-.968-3.211a46.924,46.924,0,0,0-5.126,2.512,54.95,54.95,0,0,0-8.156,5.709L8.141,42.289l-1.29-.924a1.389,1.389,0,0,0-1.58-.022l-.25.145a1.962,1.962,0,0,0-.912.914,1.121,1.121,0,0,0,.146.874l1.027,1.12-.792,1.3a1.465,1.465,0,0,0-.02,1.471l.05.1a1.523,1.523,0,0,0,1.735.8Z" transform="translate(0 0.502)" fill="#fff"/>
        <path id="パス_118356" data-name="パス 118356" d="M51.116,69.931c-2.594,3.5-7.568,7.33-14.786,11.383-.916.509-1.705.938-2.363,1.269a118.7,118.7,0,0,0-6.54-13.541c-3.313-5.905-10.154-17.215-14.771-23.566A52.1,52.1,0,0,1,20.03,40.2a38.465,38.465,0,0,1,6.016-2.77c-.657-2.258-1.39-4.7-2.148-7.127a48.84,48.84,0,0,0-7.432,3.434A56.712,56.712,0,0,0,8,39.663a3.42,3.42,0,0,0-3.908-.055A4,4,0,0,0,2.157,41.65,3.156,3.156,0,0,0,2.5,44.327a1.636,1.636,0,0,0,.2.276,3.5,3.5,0,0,0-.05,3.518A3.553,3.553,0,0,0,6.72,49.99C10.9,55.718,17.6,66.84,20.922,72.757A112.225,112.225,0,0,1,27.356,86.17a5.831,5.831,0,0,0,3.348,3.4,8.581,8.581,0,0,0,5.316.192c1.683-.779,3.335-1.622,4.911-2.506C50.846,81.693,57.312,75.482,60.147,68.8a21.45,21.45,0,0,0,1.335-4.372,22.2,22.2,0,0,0-.332-9.54,41.084,41.084,0,0,1-7.082,4.056,14.659,14.659,0,0,1-2.953,10.989" transform="translate(0.036 0.549)" fill="#fff"/>
        <path id="パス_118357" data-name="パス 118357" d="M51.981,61.953l-.4-2.643a19.525,19.525,0,0,0-2.129-6.364c-.171-.334-.329-.63-.5-.929-3.239-5.767-9.7-12.99-13.179-13.653a14.146,14.146,0,0,0-2.793-.243l-1.549.018L31,36.652c-.768-2.641-1.522-5.14-2.243-7.43l-.732-2.327,2.42-.3a26.321,26.321,0,0,1,8.234.257c8.02,1.572,16.834,12.545,20.51,19.093.164.285.328.592.488.891l-3.55,2-.043-.079c-.139-.263-.283-.53-.436-.8-3.473-6.187-11.5-15.884-17.74-17.106a23.42,23.42,0,0,0-4.505-.389q.538,1.761,1.091,3.642a18.2,18.2,0,0,1,2.036.265C42.547,35.51,50.021,45.6,52.509,50.027c.192.346.374.688.547,1.025a23.366,23.366,0,0,1,1.989,4.984c1.124-.593,2.221-1.239,3.28-1.937a29.2,29.2,0,0,0-2.2-5.271l3.59-1.924a33.473,33.473,0,0,1,2.934,7.549L63,55.8l-1.136.808a43.284,43.284,0,0,1-7.438,4.251Z" transform="translate(0.508 0.478)" fill="#fff"/>
        <path id="パス_118358" data-name="パス 118358" d="M57.876,47.831c-.163-.305-.33-.62-.509-.932C53.611,40.207,45.2,30.171,38.254,28.81a24.383,24.383,0,0,0-7.6-.236c.814,2.586,1.58,5.148,2.256,7.475a16.209,16.209,0,0,1,3.2.279c4.575.874,11.523,9.225,14.576,14.661q.269.48.509.954a21.616,21.616,0,0,1,2.351,7.025,41.093,41.093,0,0,0,7.087-4.049,31.307,31.307,0,0,0-2.756-7.089" transform="translate(0.555 0.514)" fill="#fff"/>
        <path id="パス_118359" data-name="パス 118359" d="M46.54,26.834a6.924,6.924,0,0,1-3.991-1.266,7.088,7.088,0,0,1-2.781-4.827c-.629-3.91,1.418-6.591,5.629-7.269a6.835,6.835,0,0,1,5.1,1.14,6.426,6.426,0,0,1,2.737,4.347A6.807,6.807,0,0,1,52.2,24.006a6.342,6.342,0,0,1-4.343,2.7,6.862,6.862,0,0,1-1.311.126M45.707,15.4l.337,2.1c-2.2.354-2.483,1.185-2.242,2.692a3.023,3.023,0,0,0,1.157,2.1A2.8,2.8,0,0,0,47.1,22.7l.152-.025a2.256,2.256,0,0,0,1.572-.963,2.7,2.7,0,0,0,.4-2.018l-.018-.1a2.375,2.375,0,0,0-1.024-1.629,2.769,2.769,0,0,0-2.1-.48Z" transform="translate(0.718 0.242)" fill="#fff"/>
        <path id="パス_118360" data-name="パス 118360" d="M45.687,15.446a4.75,4.75,0,0,1,3.6.792,4.405,4.405,0,0,1,1.9,3.028,4.728,4.728,0,0,1-.721,3.563,4.293,4.293,0,0,1-2.992,1.833,4.86,4.86,0,0,1-3.789-.793,4.979,4.979,0,0,1-1.934-3.4q-.689-4.284,3.929-5.025" transform="translate(0.755 0.278)" fill="#fff"/>
        <path id="パス_118361" data-name="パス 118361" d="M59.86,58.812l-.733-2.875a29.345,29.345,0,0,0-2.579-6.628l-.77-1.432L57,46.81a12.6,12.6,0,0,0,4.169-7.394,10.908,10.908,0,0,1-6.481-1.007,9.72,9.72,0,0,1-4.751-4.888,7.272,7.272,0,0,1-.185-6.256,5.13,5.13,0,0,1,2.924-2.69,4.885,4.885,0,0,1,3.934.263,4.646,4.646,0,0,1,2.494,4.3,3.9,3.9,0,0,0,.036.413,2.624,2.624,0,0,0,.837-.238c-1.975-6.073-5.975-13.38-8.838-14.727-3.952-1.86-9.22-1.934-15.659-.223a49.987,49.987,0,0,0-6.394,2.343c1.447,3.866,2.928,8.423,3.978,11.774.772,2.463,1.557,5.061,2.269,7.516l.736,2.538-2.642.064a20.861,20.861,0,0,0-6.73,1.29l-2.05.757-.611-2.1c-.679-2.337-1.417-4.788-2.136-7.088-1.1-3.539-2.143-6.665-3.057-9.2-.2.083-.409.159-.618.223a10.562,10.562,0,0,1-8.03-.607,14.635,14.635,0,0,1-3.843-2.637A4.343,4.343,0,0,1,7.94,11.953Q9.977,11.314,12,10.873a10.623,10.623,0,0,1-.5-3.082,14.709,14.709,0,0,1,.581-4.634,4.344,4.344,0,0,1,7.2-1.935,47.874,47.874,0,0,1,4.49,5.255,59,59,0,0,1,8.8-3.193c9.563-2.54,17.717-2.246,24.26.874a19.762,19.762,0,0,1,7.02,6.416,8.69,8.69,0,0,1,3.186-1.093,7.034,7.034,0,0,1,5.283,1.182,6.654,6.654,0,0,1,2.825,4.451h0a7.045,7.045,0,0,1-1.069,5.274,6.552,6.552,0,0,1-3.676,2.634c.58,1.549,1.092,3.126,1.528,4.713,1.935,7.279,1.593,13.77-1.012,19.307a23.442,23.442,0,0,1-2.607,4.274,28.734,28.734,0,0,1-6.035,5.778Zm.98-10.043a33.735,33.735,0,0,1,1.33,3.2,24.721,24.721,0,0,0,2.924-3.144,19.343,19.343,0,0,0,2.145-3.52c2.184-4.644,2.441-10.2.765-16.51a50.056,50.056,0,0,0-2.39-6.758L64.19,18.772l3.536.43a4.225,4.225,0,0,0,1.188-.026,2.524,2.524,0,0,0,1.8-1.072,2.951,2.951,0,0,0,.444-2.2l1.949-.383-1.969.286a2.605,2.605,0,0,0-1.123-1.787,3.007,3.007,0,0,0-2.283-.521c-1.284.2-2.06.6-2.355,1.18l-1.614,3.18-1.918-3.005c-2.274-3.563-4.612-5.99-6.761-7.016-5.643-2.692-12.858-2.9-21.442-.617a54.737,54.737,0,0,0-9.309,3.5l-1.45.7-1.016-1.249a1.138,1.138,0,0,0-.383-.305l-.45-.225-.293-.407a43.266,43.266,0,0,0-4.3-5.089.224.224,0,0,0-.183-.068.271.271,0,0,0-.191.082A.276.276,0,0,0,16,4.272a10.767,10.767,0,0,0-.427,3.415,6.635,6.635,0,0,0,1.089,3.581L18.4,13.906l-3.119.494a42.837,42.837,0,0,0-6.051,1.413.272.272,0,0,0-.161.342.292.292,0,0,0,.073.114,10.786,10.786,0,0,0,2.84,1.946,6.548,6.548,0,0,0,5,.389,3.169,3.169,0,0,0,1.386-.854L20.58,15.4,21.752,18.4c1.436,3.684,2.99,8.474,4.041,11.842.522,1.675,1.056,3.426,1.57,5.159a24.773,24.773,0,0,1,3.357-.675c-.5-1.681-1.022-3.387-1.536-5.032-1.2-3.82-2.962-9.225-4.566-13.281l-.693-1.749,1.689-.829a54.351,54.351,0,0,1,8.781-3.4c7.433-1.978,13.64-1.818,18.484.462,5.439,2.561,10.082,13.785,11.479,18.819l.388,1.4-1.19.824c-2.487,1.722-4.688,2.133-6.547,1.217-1.247-.617-1.91-1.952-1.972-3.969l0-.1.005-.1a.573.573,0,0,0-.306-.546.816.816,0,0,0-.665-.044,1.028,1.028,0,0,0-.6.532,3.2,3.2,0,0,0,.116,2.764l.066.14a5.675,5.675,0,0,0,2.8,2.9,6.867,6.867,0,0,0,6.045.052l2.778-1.328.132,3.078a16.639,16.639,0,0,1-4.571,12.23" transform="translate(0.09 0)" fill="#fff"/>
        <path id="パス_118362" data-name="パス 118362" d="M73.115,15.473a4.636,4.636,0,0,0-2-3.185,4.99,4.99,0,0,0-3.787-.833c-1.934.305-3.195,1.066-3.8,2.26-2.24-3.509-4.852-6.446-7.6-7.757C49.83,3.052,42.145,2.8,33.081,5.211a56.729,56.729,0,0,0-9.672,3.634A3.2,3.2,0,0,0,22.356,8a45.4,45.4,0,0,0-4.5-5.328l-.025-.025A2.307,2.307,0,0,0,14,3.688a12.794,12.794,0,0,0-.5,4.037,8.654,8.654,0,0,0,1.425,4.627,44.5,44.5,0,0,0-6.339,1.481l-.035.011a2.308,2.308,0,0,0-.832,3.879,12.794,12.794,0,0,0,3.36,2.3,8.492,8.492,0,0,0,6.509.479,5.144,5.144,0,0,0,2.229-1.393c1.222,3.135,2.647,7.393,3.993,11.708.758,2.428,1.491,4.868,2.148,7.127a22.939,22.939,0,0,1,7.385-1.414C32.67,34.2,31.9,31.64,31.09,29.052c-1.522-4.858-3.183-9.8-4.616-13.423a52.1,52.1,0,0,1,8.45-3.271c6.917-1.84,12.652-1.722,17.05.349,4.144,1.951,8.706,11.473,10.385,17.522q-2.763,1.914-4.487,1.064-.782-.386-.839-2.205a2.608,2.608,0,0,0-1.4-2.482,2.849,2.849,0,0,0-2.308-.15,3.04,3.04,0,0,0-1.742,1.59,5.272,5.272,0,0,0,.16,4.563,7.708,7.708,0,0,0,3.809,3.935,8.925,8.925,0,0,0,7.788.046A14.7,14.7,0,0,1,58.3,48.309,31.308,31.308,0,0,1,61.064,55.4a26.714,26.714,0,0,0,5.6-5.356,21.472,21.472,0,0,0,2.38-3.9c2.4-5.1,2.7-11.1.891-17.9a52.208,52.208,0,0,0-2.49-7.05,6.2,6.2,0,0,0,1.768-.04,4.513,4.513,0,0,0,3.147-1.934,4.97,4.97,0,0,0,.758-3.743" transform="translate(0.126 0.036)" fill="#fff"/>
      </g>
    </g>
    <g id="グループ_79367" data-name="グループ 79367" transform="translate(2.118 1.919)">
      <g id="グループ_79366" data-name="グループ 79366" clip-path="url(#clip-path-2)">
        <path id="パス_118363" data-name="パス 118363" d="M89.71,21.3c-5,0-9.249,2.324-12.625,6.91a23.6,23.6,0,0,0-4.425,14.3c0,10.806,4.765,16.29,14.164,16.29A15.686,15.686,0,0,0,98.7,53.274a3.523,3.523,0,0,0,.986-2.409,3.664,3.664,0,0,0-1.043-2.636,3.386,3.386,0,0,0-2.51-1.085,3.1,3.1,0,0,0-2.24,1.069,28.377,28.377,0,0,1-3.165,2.953,6.2,6.2,0,0,1-3.68,1.158c-4.86,0-7.31-3.054-7.477-9.333,1.657.146,3.113.22,4.336.22a56.224,56.224,0,0,0,11.08-1.344c4.451-.91,5.543-1.413,5.98-1.713a5.566,5.566,0,0,0,2.311-4.881,13.845,13.845,0,0,0-3.831-10.008,13.042,13.042,0,0,0-9.739-3.957m6.634,13.809a56.946,56.946,0,0,1-12.605,1.731c-1.2,0-2.349-.049-3.436-.146a14.993,14.993,0,0,1,3.9-6.508,8.489,8.489,0,0,1,6.045-2.46,5.2,5.2,0,0,1,4.221,2.06,9.344,9.344,0,0,1,1.876,5.326" transform="translate(-0.802 -1.533)" fill="#383a48"/>
        <path id="パス_118364" data-name="パス 118364" d="M120.4,21.3c-5,0-9.25,2.324-12.625,6.91a23.6,23.6,0,0,0-4.426,14.3c0,10.806,4.765,16.29,14.164,16.29a15.686,15.686,0,0,0,11.876-5.529,3.523,3.523,0,0,0,.986-2.409,3.664,3.664,0,0,0-1.043-2.636,3.383,3.383,0,0,0-2.509-1.085,3.1,3.1,0,0,0-2.24,1.069,28.562,28.562,0,0,1-3.165,2.953,6.2,6.2,0,0,1-3.681,1.158c-4.86,0-7.31-3.054-7.477-9.333,1.659.146,3.114.22,4.336.22a56.224,56.224,0,0,0,11.08-1.344c4.451-.91,5.543-1.413,5.98-1.713a5.561,5.561,0,0,0,2.311-4.881,13.849,13.849,0,0,0-3.83-10.008,13.042,13.042,0,0,0-9.739-3.957m6.634,13.809a56.946,56.946,0,0,1-12.605,1.731c-1.2,0-2.348-.049-3.436-.146a14.993,14.993,0,0,1,3.9-6.508,8.489,8.489,0,0,1,6.044-2.46,5.2,5.2,0,0,1,4.221,2.06,9.344,9.344,0,0,1,1.876,5.326" transform="translate(-0.246 -1.533)" fill="#383a48"/>
        <path id="パス_118365" data-name="パス 118365" d="M156.5,27.336a8.094,8.094,0,0,0-4.966-1.444,9.557,9.557,0,0,0-8.378,4.7c-1.355-4.3-3.054-6.394-5.177-6.394a3.408,3.408,0,0,0-2.322.957,2.9,2.9,0,0,0-1.087,2.17,5.517,5.517,0,0,0,.844,2.515c1.245,2.256,1.494,2.727,1.527,2.788l.016.038c1.462,3.069,2.2,7.242,2.2,12.4a25.205,25.205,0,0,1-.775,5.948,24.049,24.049,0,0,0-.814,3.9,2.883,2.883,0,0,0,3.211,3.184c1.575,0,2.833-1.294,3.741-3.847a30.915,30.915,0,0,0,1.339-10.062V40.479a10.305,10.305,0,0,1,1.554-6.014,4.476,4.476,0,0,1,3.838-2.093,3.613,3.613,0,0,1,2.025.863,4.438,4.438,0,0,0,2.39,1.12A2.63,2.63,0,0,0,157.7,33.4a3.265,3.265,0,0,0,.814-2.233,4.623,4.623,0,0,0-2.009-3.834" transform="translate(0.32 -1.481)" fill="#383a48"/>
        <path id="パス_118366" data-name="パス 118366" d="M37.621,56.152A118.791,118.791,0,0,0,34.658,41.4c-.417-1.569-.954-3.49-1.568-5.6A22.945,22.945,0,0,0,25.7,37.219c.675,2.32,1.27,4.45,1.731,6.173a112.036,112.036,0,0,1,2.893,14.592,5.829,5.829,0,0,0,2.4,4.129,8.579,8.579,0,0,0,5.1,1.508c1.824-.335,3.635-.74,5.381-1.2A66.724,66.724,0,0,0,53.727,58.73a21.59,21.59,0,0,0-2.35-7.025,73.033,73.033,0,0,1-11.151,3.812c-1.012.269-1.886.484-2.605.64" transform="translate(-1.652 -1.271)" fill="#383a48"/>
        <path id="パス_118367" data-name="パス 118367" d="M51.2,69.82c-2.594,3.5-7.568,7.33-14.786,11.384-.916.509-1.705.938-2.363,1.269a118.7,118.7,0,0,0-6.54-13.541C24.2,63.026,17.359,51.716,12.742,45.365a52.1,52.1,0,0,1,7.374-5.274,38.465,38.465,0,0,1,6.016-2.77c-.657-2.258-1.39-4.7-2.148-7.127a48.84,48.84,0,0,0-7.432,3.434,56.713,56.713,0,0,0-8.465,5.924A3.42,3.42,0,0,0,4.179,39.5a4,4,0,0,0-1.936,2.041,3.155,3.155,0,0,0,.346,2.678,1.636,1.636,0,0,0,.2.276,3.5,3.5,0,0,0-.05,3.518,3.553,3.553,0,0,0,4.063,1.869c4.183,5.728,10.881,16.85,14.2,22.767a112.226,112.226,0,0,1,6.434,13.413,5.831,5.831,0,0,0,3.348,3.4,8.581,8.581,0,0,0,5.316.192c1.683-.779,3.335-1.622,4.911-2.506C50.932,81.582,57.4,75.371,60.233,68.686a21.451,21.451,0,0,0,1.335-4.372,22.2,22.2,0,0,0-.332-9.54,41.084,41.084,0,0,1-7.082,4.056A14.659,14.659,0,0,1,51.2,69.82" transform="translate(-2.08 -1.372)" fill="#b37420"/>
        <path id="パス_118368" data-name="パス 118368" d="M57.962,47.72c-.163-.305-.33-.62-.509-.932C53.7,40.1,45.284,30.06,38.34,28.7a24.383,24.383,0,0,0-7.6-.236c.814,2.586,1.58,5.148,2.256,7.475a16.209,16.209,0,0,1,3.2.279c4.575.874,11.523,9.225,14.576,14.661q.269.48.509.954a21.616,21.616,0,0,1,2.351,7.025,41.093,41.093,0,0,0,7.087-4.049,31.307,31.307,0,0,0-2.756-7.089" transform="translate(-1.561 -1.407)" fill="#b37420"/>
        <path id="パス_118369" data-name="パス 118369" d="M45.773,15.335a4.75,4.75,0,0,1,3.6.792,4.405,4.405,0,0,1,1.9,3.028,4.728,4.728,0,0,1-.721,3.563,4.293,4.293,0,0,1-2.992,1.833,4.86,4.86,0,0,1-3.789-.793,4.979,4.979,0,0,1-1.934-3.4q-.689-4.284,3.929-5.025" transform="translate(-1.361 -1.643)" fill="#383a48"/>
        <path id="パス_118370" data-name="パス 118370" d="M73.2,15.362a4.636,4.636,0,0,0-2-3.185,4.99,4.99,0,0,0-3.787-.833c-1.934.305-3.195,1.066-3.8,2.26-2.24-3.509-4.852-6.446-7.6-7.757C49.916,2.941,42.231,2.691,33.167,5.1A56.729,56.729,0,0,0,23.5,8.734a3.2,3.2,0,0,0-1.053-.843,45.4,45.4,0,0,0-4.5-5.328l-.025-.025A2.307,2.307,0,0,0,14.09,3.577a12.794,12.794,0,0,0-.5,4.037,8.654,8.654,0,0,0,1.425,4.627,44.5,44.5,0,0,0-6.339,1.481l-.035.011a2.308,2.308,0,0,0-.832,3.879,12.794,12.794,0,0,0,3.36,2.3,8.492,8.492,0,0,0,6.509.479A5.144,5.144,0,0,0,19.905,19C21.127,22.13,22.552,26.388,23.9,30.7c.758,2.428,1.491,4.868,2.148,7.127a22.939,22.939,0,0,1,7.385-1.414c-.676-2.327-1.446-4.887-2.256-7.475-1.522-4.858-3.183-9.8-4.616-13.423a52.1,52.1,0,0,1,8.45-3.271c6.917-1.84,12.652-1.722,17.05.349C56.2,14.547,60.766,24.07,62.445,30.118q-2.763,1.914-4.487,1.064-.782-.386-.839-2.205a2.608,2.608,0,0,0-1.4-2.482,2.849,2.849,0,0,0-2.308-.15,3.04,3.04,0,0,0-1.742,1.59,5.272,5.272,0,0,0,.16,4.563,7.708,7.708,0,0,0,3.809,3.935,8.925,8.925,0,0,0,7.788.046A14.7,14.7,0,0,1,58.391,48.2a31.308,31.308,0,0,1,2.759,7.088,26.714,26.714,0,0,0,5.6-5.356,21.473,21.473,0,0,0,2.38-3.9c2.4-5.1,2.7-11.1.891-17.9a52.21,52.21,0,0,0-2.49-7.05,6.2,6.2,0,0,0,1.768-.04A4.513,4.513,0,0,0,72.446,19.1a4.97,4.97,0,0,0,.758-3.743" transform="translate(-1.99 -1.885)" fill="#383a48"/>
      </g>
    </g>
  </g>
</svg>
