<svg xmlns="http://www.w3.org/2000/svg" xmlns:xlink="http://www.w3.org/1999/xlink" width="113.614" height="63.388" viewBox="0 0 113.614 63.388">
  <defs>
    <clipPath id="clip-path">
      <rect id="長方形_1" data-name="長方形 1" width="113.614" height="63.388" fill="none"/>
    </clipPath>
  </defs>
  <g id="グループ_399" data-name="グループ 399" transform="translate(733 -228)">
    <g id="グループ_1" data-name="グループ 1" transform="translate(-733 228)" clip-path="url(#clip-path)">
      <path id="パス_1" data-name="パス 1" d="M116.608,28.729c-3.578,0-6.616,1.663-9.031,4.943A16.882,16.882,0,0,0,104.412,43.9c0,7.73,3.409,11.65,10.132,11.65a11.221,11.221,0,0,0,8.5-3.955,2.521,2.521,0,0,0,.705-1.723A2.621,2.621,0,0,0,123,47.988a2.424,2.424,0,0,0-1.795-.776,2.217,2.217,0,0,0-1.6.765,20.312,20.312,0,0,1-2.264,2.112,4.433,4.433,0,0,1-2.633.828c-3.477,0-5.229-2.185-5.348-6.676,1.186.1,2.227.158,3.1.158a40.245,40.245,0,0,0,7.926-.961c3.184-.651,3.965-1.011,4.278-1.226a3.981,3.981,0,0,0,1.653-3.491,9.9,9.9,0,0,0-2.74-7.159,9.33,9.33,0,0,0-6.967-2.831m4.746,9.878a40.728,40.728,0,0,1-9.017,1.236c-.856,0-1.68-.035-2.458-.1a10.726,10.726,0,0,1,2.79-4.655,6.075,6.075,0,0,1,4.324-1.76,3.723,3.723,0,0,1,3.019,1.473,6.687,6.687,0,0,1,1.342,3.81" transform="translate(-53.009 -14.585)" fill="#383a48"/>
      <path id="パス_2" data-name="パス 2" d="M162.007,28.729c-3.579,0-6.617,1.663-9.031,4.943A16.88,16.88,0,0,0,149.81,43.9c0,7.73,3.409,11.65,10.132,11.65a11.22,11.22,0,0,0,8.5-3.955,2.52,2.52,0,0,0,.7-1.723,2.62,2.62,0,0,0-.746-1.886,2.422,2.422,0,0,0-1.794-.776,2.217,2.217,0,0,0-1.6.765,20.406,20.406,0,0,1-2.264,2.112,4.433,4.433,0,0,1-2.633.828c-3.477,0-5.229-2.185-5.348-6.676,1.186.1,2.228.158,3.1.158a40.241,40.241,0,0,0,7.926-.961c3.184-.651,3.965-1.011,4.278-1.226a3.979,3.979,0,0,0,1.653-3.491,9.9,9.9,0,0,0-2.74-7.159,9.33,9.33,0,0,0-6.967-2.831m4.745,9.878a40.728,40.728,0,0,1-9.017,1.236c-.856,0-1.68-.035-2.458-.1a10.731,10.731,0,0,1,2.79-4.655,6.073,6.073,0,0,1,4.323-1.76A3.723,3.723,0,0,1,165.41,34.8a6.687,6.687,0,0,1,1.342,3.81" transform="translate(-76.057 -14.585)" fill="#383a48"/>
      <path id="パス_3" data-name="パス 3" d="M211.678,35.253a5.79,5.79,0,0,0-3.552-1.032,6.836,6.836,0,0,0-5.993,3.359c-.969-3.075-2.185-4.574-3.7-4.574a2.438,2.438,0,0,0-1.662.684,2.078,2.078,0,0,0-.778,1.552,3.949,3.949,0,0,0,.6,1.8c.891,1.614,1.068,1.95,1.089,1.994l.011.027a20.97,20.97,0,0,1,1.575,8.873,18.023,18.023,0,0,1-.554,4.255,17.211,17.211,0,0,0-.579,2.79,2.063,2.063,0,0,0,2.3,2.277c1.126,0,2.027-.926,2.676-2.752a22.111,22.111,0,0,0,.958-7.2V44.656a7.374,7.374,0,0,1,1.111-4.3,3.2,3.2,0,0,1,2.746-1.5,2.583,2.583,0,0,1,1.449.618,3.172,3.172,0,0,0,1.709.8,1.882,1.882,0,0,0,1.455-.68,2.335,2.335,0,0,0,.579-1.6,3.308,3.308,0,0,0-1.437-2.743" transform="translate(-99.502 -16.757)" fill="#383a48"/>
      <path id="パス_4" data-name="パス 4" d="M43.472,64.733a85.075,85.075,0,0,0-2.119-10.549c-.3-1.122-.682-2.5-1.121-4.008a16.4,16.4,0,0,0-5.283,1.012c.483,1.66.908,3.183,1.236,4.416a80.129,80.129,0,0,1,2.07,10.438,4.17,4.17,0,0,0,1.714,2.954,6.134,6.134,0,0,0,3.648,1.08c1.305-.239,2.6-.529,3.849-.862a47.726,47.726,0,0,0,7.529-2.637,15.449,15.449,0,0,0-1.681-5.028,52.292,52.292,0,0,1-7.977,2.727c-.724.192-1.349.346-1.863.458" transform="translate(-17.743 -25.473)" fill="#383a48"/>
      <path id="パス_5" data-name="パス 5" d="M35.139,70.224c-1.855,2.505-5.413,5.245-10.577,8.143-.653.367-1.22.671-1.691.908a85,85,0,0,0-4.678-9.69c-2.37-4.223-7.264-12.315-10.566-16.858A37.3,37.3,0,0,1,12.9,48.955a27.524,27.524,0,0,1,4.3-1.982c-.47-1.615-.994-3.36-1.537-5.1a34.962,34.962,0,0,0-5.315,2.457A40.575,40.575,0,0,0,4.3,48.572a2.446,2.446,0,0,0-2.795-.039A2.86,2.86,0,0,0,.116,49.994a2.255,2.255,0,0,0,.246,1.916,1.19,1.19,0,0,0,.144.2A2.506,2.506,0,0,0,.47,54.623,2.542,2.542,0,0,0,3.377,55.96c3,4.1,7.787,12.053,10.163,16.286a80.167,80.167,0,0,1,4.6,9.595,4.169,4.169,0,0,0,2.395,2.434,6.139,6.139,0,0,0,3.8.138c1.2-.557,2.386-1.16,3.514-1.792,7.093-3.982,11.718-8.425,13.747-13.207a15.347,15.347,0,0,0,.955-3.127,15.882,15.882,0,0,0-.238-6.824,29.365,29.365,0,0,1-5.066,2.9,10.49,10.49,0,0,1-2.113,7.861" transform="translate(0 -21.26)" fill="#b37420"/>
      <path id="パス_6" data-name="パス 6" d="M61.872,52.95c-.117-.222-.236-.444-.361-.666-2.687-4.787-8.705-11.967-13.672-12.94a17.441,17.441,0,0,0-5.438-.169c.579,1.85,1.13,3.682,1.614,5.347a11.615,11.615,0,0,1,2.288.2c3.273.625,8.243,6.6,10.427,10.49.128.229.249.456.366.682a15.454,15.454,0,0,1,1.682,5.028,29.383,29.383,0,0,0,5.066-2.9,22.414,22.414,0,0,0-1.971-5.071" transform="translate(-21.527 -19.82)" fill="#b37420"/>
      <path id="パス_7" data-name="パス 7" d="M61.566,19.844a3.4,3.4,0,0,1,2.577.567A3.153,3.153,0,0,1,65.5,22.577a3.379,3.379,0,0,1-.516,2.546,3.069,3.069,0,0,1-2.141,1.313,3.475,3.475,0,0,1-2.711-.568,3.561,3.561,0,0,1-1.382-2.43q-.493-3.064,2.811-3.595" transform="translate(-29.797 -10.048)" fill="#383a48"/>
      <path id="パス_8" data-name="パス 8" d="M54.688,9.641a3.316,3.316,0,0,0-1.433-2.278,3.571,3.571,0,0,0-2.709-.6,3.4,3.4,0,0,0-2.72,1.617c-1.6-2.51-3.471-4.611-5.437-5.549C38.031.757,32.533.576,26.05,2.3a40.59,40.59,0,0,0-6.918,2.6,2.286,2.286,0,0,0-.754-.607A32.464,32.464,0,0,0,15.16.486L15.142.468a1.651,1.651,0,0,0-2.739.744A9.161,9.161,0,0,0,12.044,4.1a6.187,6.187,0,0,0,1.019,3.31,31.855,31.855,0,0,0-4.534,1.06L8.5,8.477a1.651,1.651,0,0,0-.6,2.775,9.147,9.147,0,0,0,2.4,1.643,6.076,6.076,0,0,0,4.656.342,3.68,3.68,0,0,0,1.594-1c.873,2.242,1.892,5.288,2.856,8.374.543,1.737,1.066,3.482,1.536,5.1A16.4,16.4,0,0,1,26.236,24.7c-.483-1.665-1.034-3.5-1.614-5.347-1.088-3.476-2.276-7.01-3.3-9.6a37.344,37.344,0,0,1,6.048-2.34c4.948-1.316,9.051-1.232,12.2.25,2.964,1.4,6.228,8.207,7.426,12.534q-1.977,1.369-3.21.761-.559-.276-.6-1.577a1.866,1.866,0,0,0-1-1.775A2.038,2.038,0,0,0,40.53,17.5a2.175,2.175,0,0,0-1.246,1.137A3.77,3.77,0,0,0,39.4,21.9a5.518,5.518,0,0,0,2.724,2.815,6.385,6.385,0,0,0,5.57.032,10.516,10.516,0,0,1-3.6,8.384A22.412,22.412,0,0,1,46.064,38.2a19.1,19.1,0,0,0,4.007-3.832,15.346,15.346,0,0,0,1.7-2.791c1.715-3.646,1.931-7.938.637-12.805a37.327,37.327,0,0,0-1.781-5.043,4.413,4.413,0,0,0,1.265-.029,3.229,3.229,0,0,0,2.251-1.381,3.555,3.555,0,0,0,.543-2.677" transform="translate(-3.748 0)" fill="#383a48"/>
    </g>
  </g>
</svg>
